<svg id="fi_3769316" fill="current" viewBox="0 0 512 512" xmlns="http://www.w3.org/2000/svg">
    <g>
        <path d="m101.21 61.297c9.396 14.005 17.259 28.81 23.527 44.203h116.263v-105.5h-198.625c22.894 16.722 42.791 37.384 58.835 61.297z"></path>
        <path d="m212.595 334.632h28.405v-63.632h-97.975c3.076 35.434 33.093 63.467 69.57 63.632z"></path>
        <path d="m135.5 138.502c4.79 19.243 7.247 39.114 7.247 59.256v43.242h233.753v-105.5h-241z"></path>
        <path d="m271 271v64.488c47.738 3.462 94.022 17.434 135.755 41.012h105.245v-105.5z"></path>
        <path d="m512 471.566v-65.066h-61.07c23.304 18.795 43.839 40.679 61.07 65.066z"></path>
        <path d="m406.5 135.5h105.5v105.5h-105.5z"></path>
        <path d="m271 105.5h241v-87.572c0-9.886-8.042-17.928-17.928-17.928h-223.072z"></path>
        <path d="m502.271 512c-23.674-41.18-56.958-76.014-97.313-101.619-47.168-29.929-101.628-45.749-157.49-45.749h-34.941c-55.05-.249-99.78-44.942-99.78-99.63v-67.243c0-42.799-12.604-84.207-36.449-119.747-19.572-29.172-45.672-52.833-76.298-69.351v485.411c0 9.886 8.042 17.928 17.928 17.928z"></path>
    </g>
</svg>